#Comment line ignore any data following # character 
#Hierarchical Translation and Rotation (.htr) file 
[Header]	
#Header keywords are followed by a single value 
FileType HTR		#Single word string
DataType HTRS		#Translation followed by rotation and scale data
FileVersion 1		#integer
NumSegments 84		#integer
NumFrames 2		#integer
DataFrameRate 30		#integer, data frame rate in this file
EulerRotationOrder ZYX
CalibrationUnits mm
RotationUnits Degrees
GlobalAxisofGravity Y
BoneLengthAxis Y
ScaleFactor 1.00
[SegmentNames&Hierarchy]
#CHILD	PARENT
MASTER GLOBAL
root MASTER
chest root
L_mid_tent01 root
R_mid_tent01 root
spine01 root
Bip01_Neck chest
L_humerus chest
R_humerus chest
weapon_bone chest
Bip01_Head Bip01_Neck
eye_left_bone Bip01_Head
eye_right_bone Bip01_Head
L_forearm L_humerus
L_front_hand L_forearm
L_weapon_bone L_forearm
L_front_hand01_01 L_front_hand
L_front_hand02_01 L_front_hand
L_front_hand03_01 L_front_hand
L_front_hand01_02 L_front_hand01_01
L_front_hand02_02 L_front_hand02_01
L_front_hand03_02 L_front_hand03_01
R_forearm R_humerus
R_front_hand R_forearm
R_weapon_bone R_forearm
R_front_hand01_01 R_front_hand
R_front_hand02_01 R_front_hand
R_front_hand03_01 R_front_hand
R_front_hand01_02 R_front_hand01_01
R_front_hand02_02 R_front_hand02_01
R_front_hand03_02 R_front_hand03_01
null_rope01_connect L_mid_tent01
Rope1_Seg01 null_rope01_connect
Rope1_Seg02 Rope1_Seg01
Rope1_Seg03 Rope1_Seg02
Rope1_Seg04 Rope1_Seg03
Rope1_Seg05 Rope1_Seg04
Rope1_Seg06 Rope1_Seg05
Rope1_Seg07 Rope1_Seg06
Rope1_Seg09 Rope1_Seg07
L_mid_hand01 Rope1_Seg09
L_mid_hand02 Rope1_Seg09
L_mid_hand03 Rope1_Seg09
null_rope02_connect R_mid_tent01
Rope2_Seg01 null_rope02_connect
Rope2_Seg02 Rope2_Seg01
Rope2_Seg03 Rope2_Seg02
Rope2_Seg04 Rope2_Seg03
Rope2_Seg05 Rope2_Seg04
Rope2_Seg06 Rope2_Seg05
Rope2_Seg07 Rope2_Seg06
Rope2_Seg09 Rope2_Seg07
R_mid_hand01 Rope2_Seg09
R_mid_hand02 Rope2_Seg09
R_mid_hand03 Rope2_Seg09
spine02 spine01
spine03 spine02
pelvis spine03
null_rope03_connect pelvis
null_rope04_connect pelvis
Rope3_Seg01 null_rope03_connect
Rope3_Seg02 Rope3_Seg01
Rope3_Seg03 Rope3_Seg02
Rope3_Seg04 Rope3_Seg03
Rope3_Seg05 Rope3_Seg04
Rope3_Seg06 Rope3_Seg05
Rope3_Seg07 Rope3_Seg06
Rope3_Seg08 Rope3_Seg07
Rope3_Seg09 Rope3_Seg08
R_rear_hand01 Rope3_Seg09
R_rear_hand02 Rope3_Seg09
R_rear_hand03 Rope3_Seg09
Rope4_Seg01 null_rope04_connect
Rope4_Seg02 Rope4_Seg01
Rope4_Seg03 Rope4_Seg02
Rope4_Seg04 Rope4_Seg03
Rope4_Seg05 Rope4_Seg04
Rope4_Seg06 Rope4_Seg05
Rope4_Seg07 Rope4_Seg06
Rope4_Seg08 Rope4_Seg07
Rope4_Seg09 Rope4_Seg08
L_rear_hand01 Rope4_Seg09
L_rear_hand02 Rope4_Seg09
L_rear_hand03 Rope4_Seg09
[BasePosition]
#SegmentName Tx, Ty, Tz, Rx, Ry, Rz, BoneLength
MASTER 0.000000 0.000000 0.000000 -90.000000 0.000000 0.000000 10.000000 
root 0.000000 0.000000 0.000000 0.000000 0.000000 0.000000 10.000000 
chest 0.000000 0.000000 0.000000 0.000000 0.000000 0.000000 10.000000 
L_mid_tent01 0.000000 0.000000 0.000000 0.000000 0.000000 0.000000 10.000000 
R_mid_tent01 0.000000 0.000000 0.000000 0.000000 0.000000 0.000000 10.000000 
spine01 0.000000 0.000000 0.000000 0.000000 0.000000 0.000000 10.000000 
Bip01_Neck 0.000000 0.000000 0.000000 0.000000 0.000000 0.000000 10.000000 
L_humerus 0.000000 0.000000 0.000000 0.000000 0.000000 0.000000 10.000000 
R_humerus 0.000000 0.000000 0.000000 0.000000 0.000000 0.000000 10.000000 
weapon_bone 0.000000 0.000000 0.000000 0.000000 0.000000 0.000000 10.000000 
Bip01_Head 0.000000 0.000000 0.000000 0.000000 0.000000 0.000000 10.000000 
eye_left_bone 0.000000 0.000000 0.000000 0.000000 0.000000 0.000000 10.000000 
eye_right_bone 0.000000 0.000000 0.000000 0.000000 0.000000 0.000000 10.000000 
L_forearm 0.000000 0.000000 0.000000 0.000000 0.000000 0.000000 10.000000 
L_front_hand 0.000000 0.000000 0.000000 0.000000 0.000000 0.000000 10.000000 
L_weapon_bone 0.000000 0.000000 0.000000 0.000000 0.000000 0.000000 10.000000 
L_front_hand01_01 0.000000 0.000000 0.000000 0.000000 0.000000 0.000000 10.000000 
L_front_hand02_01 0.000000 0.000000 0.000000 0.000000 0.000000 0.000000 10.000000 
L_front_hand03_01 0.000000 0.000000 0.000000 0.000000 0.000000 0.000000 10.000000 
L_front_hand01_02 0.000000 0.000000 0.000000 0.000000 0.000000 0.000000 10.000000 
L_front_hand02_02 0.000000 0.000000 0.000000 0.000000 0.000000 0.000000 10.000000 
L_front_hand03_02 0.000000 0.000000 0.000000 0.000000 0.000000 0.000000 10.000000 
R_forearm 0.000000 0.000000 0.000000 0.000000 0.000000 0.000000 10.000000 
R_front_hand 0.000000 0.000000 0.000000 0.000000 0.000000 0.000000 10.000000 
R_weapon_bone 0.000000 0.000000 0.000000 0.000000 0.000000 0.000000 10.000000 
R_front_hand01_01 0.000000 0.000000 0.000000 0.000000 0.000000 0.000000 10.000000 
R_front_hand02_01 0.000000 0.000000 0.000000 0.000000 0.000000 0.000000 10.000000 
R_front_hand03_01 0.000000 0.000000 0.000000 0.000000 0.000000 0.000000 10.000000 
R_front_hand01_02 0.000000 0.000000 0.000000 0.000000 0.000000 0.000000 10.000000 
R_front_hand02_02 0.000000 0.000000 0.000000 0.000000 0.000000 0.000000 10.000000 
R_front_hand03_02 0.000000 0.000000 0.000000 0.000000 0.000000 0.000000 10.000000 
null_rope01_connect 0.000000 0.000000 0.000000 0.000000 0.000000 0.000000 10.000000 
Rope1_Seg01 0.000000 0.000000 0.000000 0.000000 0.000000 0.000000 10.000000 
Rope1_Seg02 0.000000 0.000000 0.000000 0.000000 0.000000 0.000000 10.000000 
Rope1_Seg03 0.000000 0.000000 0.000000 0.000000 0.000000 0.000000 10.000000 
Rope1_Seg04 0.000000 0.000000 0.000000 0.000000 0.000000 0.000000 10.000000 
Rope1_Seg05 0.000000 0.000000 0.000000 0.000000 0.000000 0.000000 10.000000 
Rope1_Seg06 0.000000 0.000000 0.000000 0.000000 0.000000 0.000000 10.000000 
Rope1_Seg07 0.000000 0.000000 0.000000 0.000000 0.000000 0.000000 10.000000 
Rope1_Seg09 0.000000 0.000000 0.000000 0.000000 0.000000 0.000000 10.000000 
L_mid_hand01 0.000000 0.000000 0.000000 0.000000 0.000000 0.000000 10.000000 
L_mid_hand02 0.000000 0.000000 0.000000 0.000000 0.000000 0.000000 10.000000 
L_mid_hand03 0.000000 0.000000 0.000000 0.000000 0.000000 0.000000 10.000000 
null_rope02_connect 0.000000 0.000000 0.000000 0.000000 0.000000 0.000000 10.000000 
Rope2_Seg01 0.000000 0.000000 0.000000 0.000000 0.000000 0.000000 10.000000 
Rope2_Seg02 0.000000 0.000000 0.000000 0.000000 0.000000 0.000000 10.000000 
Rope2_Seg03 0.000000 0.000000 0.000000 0.000000 0.000000 0.000000 10.000000 
Rope2_Seg04 0.000000 0.000000 0.000000 0.000000 0.000000 0.000000 10.000000 
Rope2_Seg05 0.000000 0.000000 0.000000 0.000000 0.000000 0.000000 10.000000 
Rope2_Seg06 0.000000 0.000000 0.000000 0.000000 0.000000 0.000000 10.000000 
Rope2_Seg07 0.000000 0.000000 0.000000 0.000000 0.000000 0.000000 10.000000 
Rope2_Seg09 0.000000 0.000000 0.000000 0.000000 0.000000 0.000000 10.000000 
R_mid_hand01 0.000000 0.000000 0.000000 0.000000 0.000000 0.000000 10.000000 
R_mid_hand02 0.000000 0.000000 0.000000 0.000000 0.000000 0.000000 10.000000 
R_mid_hand03 0.000000 0.000000 0.000000 0.000000 0.000000 0.000000 10.000000 
spine02 0.000000 0.000000 0.000000 0.000000 0.000000 0.000000 10.000000 
spine03 0.000000 0.000000 0.000000 0.000000 0.000000 0.000000 10.000000 
pelvis 0.000000 0.000000 0.000000 0.000000 0.000000 0.000000 10.000000 
null_rope03_connect 0.000000 0.000000 0.000000 0.000000 0.000000 0.000000 10.000000 
null_rope04_connect 0.000000 0.000000 0.000000 0.000000 0.000000 0.000000 10.000000 
Rope3_Seg01 0.000000 0.000000 0.000000 0.000000 0.000000 0.000000 10.000000 
Rope3_Seg02 0.000000 0.000000 0.000000 0.000000 0.000000 0.000000 10.000000 
Rope3_Seg03 0.000000 0.000000 0.000000 0.000000 0.000000 0.000000 10.000000 
Rope3_Seg04 0.000000 0.000000 0.000000 0.000000 0.000000 0.000000 10.000000 
Rope3_Seg05 0.000000 0.000000 0.000000 0.000000 0.000000 0.000000 10.000000 
Rope3_Seg06 0.000000 0.000000 0.000000 0.000000 0.000000 0.000000 10.000000 
Rope3_Seg07 0.000000 0.000000 0.000000 0.000000 0.000000 0.000000 10.000000 
Rope3_Seg08 0.000000 0.000000 0.000000 0.000000 0.000000 0.000000 10.000000 
Rope3_Seg09 0.000000 0.000000 0.000000 0.000000 0.000000 0.000000 10.000000 
R_rear_hand01 0.000000 0.000000 0.000000 0.000000 0.000000 0.000000 10.000000 
R_rear_hand02 0.000000 0.000000 0.000000 0.000000 0.000000 0.000000 10.000000 
R_rear_hand03 0.000000 0.000000 0.000000 0.000000 0.000000 0.000000 10.000000 
Rope4_Seg01 0.000000 0.000000 0.000000 0.000000 0.000000 0.000000 10.000000 
Rope4_Seg02 0.000000 0.000000 0.000000 0.000000 0.000000 0.000000 10.000000 
Rope4_Seg03 0.000000 0.000000 0.000000 0.000000 0.000000 0.000000 10.000000 
Rope4_Seg04 0.000000 0.000000 0.000000 0.000000 0.000000 0.000000 10.000000 
Rope4_Seg05 0.000000 0.000000 0.000000 0.000000 0.000000 0.000000 10.000000 
Rope4_Seg06 0.000000 0.000000 0.000000 0.000000 0.000000 0.000000 10.000000 
Rope4_Seg07 0.000000 0.000000 0.000000 0.000000 0.000000 0.000000 10.000000 
Rope4_Seg08 0.000000 0.000000 0.000000 0.000000 0.000000 0.000000 10.000000 
Rope4_Seg09 0.000000 0.000000 0.000000 0.000000 0.000000 0.000000 10.000000 
L_rear_hand01 0.000000 0.000000 0.000000 0.000000 0.000000 0.000000 10.000000 
L_rear_hand02 0.000000 0.000000 0.000000 0.000000 0.000000 0.000000 10.000000 
L_rear_hand03 0.000000 0.000000 0.000000 0.000000 0.000000 0.000000 10.000000 
#Beginning of Data. Separated by tabs
#Fr	Tx	Ty	Tz	Rx	Ry	Rz	SF
[MASTER]
11 -399.590607 -2745.357422 3137.554688 0.000000 -0.002347 -90.000000 4188.186523
12 -522.864258 -2891.841797 3207.712402 0.000000 -0.002347 -89.999992 4350.351074
[root]
11 -51.398602 -43.988415 304.501648 -11.857951 2.923935 157.694473 311.926361
12 -70.183990 -28.287764 259.471741 -7.901594 5.656275 160.448502 270.280548
[chest]
11 -84.512650 -34.090519 0.000000 56.043434 -1.375300 158.984894 91.129311
12 -84.512650 -34.090519 0.000000 64.931465 3.980919 155.169052 91.129311
[L_mid_tent01]
11 27.299679 22.177532 -249.918259 -0.242067 20.114885 78.878372 252.381165
12 27.299692 22.177532 -249.918259 -2.188558 19.628098 75.078949 252.381165
[R_mid_tent01]
11 23.228794 24.509907 226.238495 168.972626 -21.987171 67.978378 228.744751
12 23.228794 24.509907 226.238495 164.935211 -26.698290 65.426186 228.744751
[spine01]
11 -0.361383 -0.195265 0.000000 0.001775 0.001541 8.053009 0.410763
12 -0.361383 -0.195265 0.000000 0.001767 0.001550 7.492358 0.410763
[Bip01_Neck]
11 165.484543 71.581718 0.000119 176.643677 -1.657967 43.431911 180.302734
12 165.484543 71.581718 0.000119 176.643677 -1.657967 43.431911 180.302734
[L_humerus]
11 -13.983130 -135.272980 -120.471481 104.450340 81.927612 -164.995590 181.680161
12 -13.983130 -135.272980 -120.471481 110.886909 81.632759 -158.487747 181.680161
[R_humerus]
11 -13.983309 -135.273102 125.287651 -172.439240 -66.725060 -92.491844 184.909012
12 -13.983309 -135.273102 125.287651 -174.124268 -59.471085 -90.609024 184.909012
[weapon_bone]
11 235.964890 -300.705902 0.000000 0.000000 -89.951546 -128.212341 382.234833
12 235.964890 -300.705902 0.000000 0.000000 -89.951546 -128.212341 382.234833
[Bip01_Head]
11 213.448837 185.702225 11.947944 17.793566 2.347695 -43.882111 283.175690
12 213.363144 185.941895 8.855900 17.877300 4.960130 -43.864723 283.154785
[eye_left_bone]
11 -24.626970 125.451866 -64.772606 0.000000 -90.000000 -99.840431 143.318359
12 -24.626970 125.451866 -64.772606 0.000000 -90.000000 -99.840431 143.318359
[eye_right_bone]
11 -24.626970 125.451866 64.327362 0.000000 -89.965736 80.156380 143.117676
12 -24.626970 125.451866 64.327362 0.000000 -89.965736 80.156380 143.117676
[L_forearm]
11 322.776093 0.000000 -0.000119 0.000119 -0.002344 -95.807457 322.776093
12 322.776093 0.000000 -0.000119 0.000119 -0.002344 -95.807457 322.776093
[L_front_hand]
11 241.149185 -0.042021 -3.300071 -178.667953 -1.835447 -27.422350 241.171753
12 241.149185 -0.042021 -3.300071 -178.667953 -1.835447 -27.422342 241.171753
[L_weapon_bone]
11 156.183838 0.000000 0.000000 0.000014 0.000007 0.000001 156.183838
12 156.183838 0.000000 0.000000 0.000014 0.000007 0.000001 156.183838
[L_front_hand01_01]
11 86.095154 20.947098 -0.655860 -0.273295 -0.533469 64.985298 88.609184
12 86.095154 20.947098 -0.655860 -0.274251 -0.532978 65.190620 88.609184
[L_front_hand02_01]
11 86.935165 -11.437475 24.513514 140.772385 -54.262844 -45.183468 91.046425
12 86.935165 -11.437475 24.513514 140.993607 -54.388721 -45.452248 91.046425
[L_front_hand03_01]
11 86.637497 -14.123976 -20.424902 -141.183044 52.494118 -47.265888 90.126129
12 86.637497 -14.123976 -20.424902 -141.389969 52.619431 -47.524090 90.126129
[L_front_hand01_02]
11 71.020905 -0.000179 0.000030 0.000315 -0.002326 -105.406754 71.020905
12 71.020905 -0.000179 0.000030 0.000315 -0.002326 -105.400543 71.020905
[L_front_hand02_02]
11 71.020927 -0.000119 0.000060 0.000315 -0.002326 -105.406754 71.020927
12 71.020927 -0.000119 0.000060 0.000315 -0.002326 -105.400543 71.020927
[L_front_hand03_02]
11 71.020905 -0.000060 0.000060 0.000315 -0.002326 -105.406754 71.020905
12 71.020905 -0.000060 0.000060 0.000315 -0.002326 -105.400543 71.020905
[R_forearm]
11 322.776428 -0.000060 0.000030 0.209504 0.012586 -94.339050 322.776428
12 322.776428 -0.000060 0.000030 0.209504 0.012586 -94.339050 322.776428
[R_front_hand]
11 238.847015 -0.006795 2.210259 -2.635298 -10.645461 -26.312506 238.857239
12 238.847015 -0.006795 2.210259 -2.635298 -10.645461 -26.312506 238.857239
[R_weapon_bone]
11 155.664093 0.002503 -0.000030 0.003487 0.001180 -90.988930 155.664078
12 155.664093 0.002503 -0.000030 0.003487 0.001180 -90.988930 155.664078
[R_front_hand01_01]
11 87.624611 14.231146 22.918642 -138.890259 -53.085796 42.950848 91.683487
12 87.624611 14.231146 22.918642 -138.456909 -52.798630 42.405624 91.683487
[R_front_hand02_01]
11 89.356956 14.367283 -19.491137 139.720169 51.522045 45.641415 92.579636
12 89.356956 14.367283 -19.491137 139.300415 51.240429 45.105949 92.579636
[R_front_hand03_01]
11 87.286232 -22.307278 -0.143439 0.065790 -0.451534 -63.409447 90.091743
12 87.286232 -22.307278 -0.143439 0.064051 -0.451784 -62.968155 90.091743
[R_front_hand01_02]
11 71.020905 0.000060 0.000119 0.002323 -0.000334 106.381714 71.020905
12 71.020905 0.000060 0.000119 0.002323 -0.000334 106.381714 71.020905
[R_front_hand02_02]
11 71.020844 -0.000030 -0.000119 0.002323 -0.000334 106.381714 71.020836
12 71.020844 -0.000030 -0.000119 0.002323 -0.000334 106.381714 71.020836
[R_front_hand03_02]
11 71.020905 0.000000 0.000030 0.002323 -0.000334 106.381714 71.020905
12 71.020905 0.000000 0.000030 0.002323 -0.000334 106.381714 71.020905
[null_rope01_connect]
11 328.732483 0.000000 -0.000238 19.331186 26.404966 -142.478333 328.732483
12 328.732483 0.000000 -0.000238 17.870234 22.840815 -143.450226 328.732483
[Rope1_Seg01]
11 0.000023 0.000222 0.000000 62.409958 45.894447 -105.302406 0.000223
12 0.000023 0.000244 0.000000 80.446136 43.080429 -85.726341 0.000245
[Rope1_Seg02]
11 139.999863 -0.000179 0.000000 -4.047358 -13.390606 3.252626 139.999863
12 139.999863 -0.000179 0.000000 -4.937094 -16.739378 2.429737 139.999863
[Rope1_Seg03]
11 139.999924 0.000060 -0.000060 -4.472758 -11.010440 4.063400 139.999924
12 139.999924 0.000060 -0.000060 -5.079921 -11.488983 1.921127 139.999924
[Rope1_Seg04]
11 139.999924 -0.000060 -0.000119 -6.414371 -8.407982 -1.076031 139.999924
12 139.999924 -0.000060 -0.000119 -7.263359 -10.492559 -0.987710 139.999924
[Rope1_Seg05]
11 139.999832 0.000119 -0.000060 -5.761792 -3.520717 -5.838363 139.999832
12 139.999832 0.000119 -0.000060 -10.701921 -10.693709 -5.312900 139.999832
[Rope1_Seg06]
11 139.999954 0.000119 -0.000060 -3.012998 -1.975748 -3.108630 139.999954
12 139.999954 0.000119 -0.000060 -7.274642 -6.084629 -4.575365 139.999954
[Rope1_Seg07]
11 139.999985 0.000060 0.000000 -1.861331 -1.329911 -1.876341 139.999985
12 139.999985 0.000060 0.000000 -4.398247 -3.374632 -3.072736 139.999985
[Rope1_Seg09]
11 121.602913 0.000119 -0.000089 -89.793175 -1.359789 0.847147 121.602913
12 121.602913 0.000119 -0.000089 -89.793175 -1.359789 0.847147 121.602913
[L_mid_hand01]
11 103.859421 1.038730 8.195221 109.056198 -40.604698 -13.201401 104.187431
12 103.859421 1.038730 8.195221 109.203865 -41.086700 -13.424594 104.187431
[L_mid_hand02]
11 105.572853 -4.139662 -10.864139 -146.713593 31.476528 -37.902313 106.211075
12 105.572853 -4.139662 -10.864139 -146.975464 31.757511 -38.401608 106.211075
[L_mid_hand03]
11 104.641464 17.579376 -3.913581 -14.267233 12.322316 43.898396 106.179977
12 104.641464 17.579376 -3.913581 -14.157615 12.442541 44.406353 106.179977
[null_rope02_connect]
11 328.732849 0.000179 -0.000119 164.009064 -1.756138 135.588333 328.732849
12 328.732849 0.000179 -0.000119 158.684021 2.653376 133.043137 328.732849
[Rope2_Seg01]
11 -0.000069 -0.000156 0.000000 129.702576 -81.023834 28.801500 0.000171
12 -0.000069 -0.000153 0.000000 158.463211 -68.203918 -4.331264 0.000167
[Rope2_Seg02]
11 139.999741 -0.000060 -0.000119 17.339432 5.565750 34.415916 139.999756
12 139.999741 -0.000060 -0.000119 27.306553 1.487192 33.755165 139.999756
[Rope2_Seg03]
11 140.000107 0.000030 0.000000 22.502022 16.230167 37.612617 140.000107
12 140.000107 0.000030 0.000000 30.583126 16.938473 33.677895 140.000107
[Rope2_Seg04]
11 139.999802 0.000000 -0.000060 5.855403 11.673527 12.999974 139.999802
12 139.999802 0.000000 -0.000060 7.477632 13.232538 10.065447 139.999802
[Rope2_Seg05]
11 139.999985 -0.000060 0.000119 1.096126 3.890366 3.795674 139.999985
12 139.999985 -0.000060 0.000119 1.590216 6.173460 2.539518 139.999985
[Rope2_Seg06]
11 139.999893 -0.000030 -0.000119 0.429391 1.829377 2.001995 139.999893
12 139.999893 -0.000030 -0.000119 0.643747 5.474374 0.794961 139.999893
[Rope2_Seg07]
11 139.999893 0.000060 -0.000060 0.425556 1.992077 2.185639 139.999893
12 139.999893 0.000060 -0.000060 0.422256 5.851973 0.865124 139.999893
[Rope2_Seg09]
11 121.338966 0.000089 -0.000060 33.793236 -1.359788 -0.847141 121.338966
12 121.338966 0.000089 -0.000060 33.793236 -1.359788 -0.847141 121.338966
[R_mid_hand01]
11 104.680779 11.144459 -10.335981 -33.085678 36.191685 44.913235 105.778534
12 104.680779 11.144459 -10.335981 -34.514381 34.853710 42.458721 105.778534
[R_mid_hand02]
11 104.070427 2.443552 8.231699 67.611237 -49.370296 17.897308 104.424065
12 104.070427 2.443552 8.231699 68.611877 -47.139297 16.550779 104.424065
[R_mid_hand03]
11 106.028137 -11.221827 -5.996406 -171.571182 13.427420 -54.737041 106.788818
12 106.028137 -11.221827 -5.996406 -171.008881 13.064262 -52.295349 106.788818
[spine02]
11 129.756927 0.001550 0.000119 -1.023899 -3.926965 6.770993 129.756927
12 129.756927 0.001550 0.000119 -1.023899 -3.926964 6.770991 129.756927
[spine03]
11 78.613937 0.087381 -4.898876 1.040681 4.146420 4.212376 78.766472
12 78.613953 0.087387 -4.898877 1.040681 4.146420 4.212376 78.766487
[pelvis]
11 169.435242 0.051022 0.000000 5.137379 -0.187241 -10.720727 169.435257
12 169.435242 0.051022 0.000000 5.649739 -0.189023 -10.718942 169.435257
[null_rope03_connect]
11 -1.257226 -2.466202 137.391083 6.099786 5.174644 -75.752235 137.418976
12 -1.257226 -2.466202 137.391083 6.929748 0.333644 -78.177742 137.418976
[null_rope04_connect]
11 -1.259640 -2.480268 -137.844437 6.099786 5.174644 -75.752235 137.872513
12 -1.259640 -2.480268 -137.844437 6.929748 0.333644 -78.177742 137.872513
[Rope3_Seg01]
11 0.000023 0.000222 0.000000 -106.370743 -34.342731 59.342747 0.000223
12 0.000023 0.000244 0.000000 -109.312202 -35.666237 63.672546 0.000245
[Rope3_Seg02]
11 139.999924 -0.000119 0.000060 2.910267 -1.597773 -30.580534 139.999924
12 139.999924 -0.000119 0.000060 1.955459 -0.400525 -28.456604 139.999924
[Rope3_Seg03]
11 139.999924 -0.000119 0.000119 -2.999865 -5.248798 -30.391747 139.999924
12 139.999924 -0.000119 0.000119 -4.538016 -3.086755 -30.799807 139.999924
[Rope3_Seg04]
11 139.999924 0.000119 0.000000 -6.840546 -0.845118 -15.413579 139.999924
12 139.999924 0.000119 0.000000 -8.129257 0.073651 -16.286345 139.999924
[Rope3_Seg05]
11 139.999924 -0.000238 0.000060 -22.624765 7.547333 -18.350658 139.999924
12 139.999924 -0.000238 0.000060 -21.021774 7.570373 -16.957758 139.999924
[Rope3_Seg06]
11 139.999893 -0.000119 -0.000060 -32.693111 17.270613 -16.277477 139.999893
12 139.999893 -0.000119 -0.000060 -29.729303 16.162247 -15.000157 139.999893
[Rope3_Seg07]
11 139.999771 0.000060 -0.000119 -11.636439 11.264068 -3.087992 139.999771
12 139.999771 0.000060 -0.000119 -11.758286 11.020846 -3.449330 139.999771
[Rope3_Seg08]
11 139.999985 -0.000060 0.000000 -4.500232 6.194516 -0.430329 139.999985
12 139.999985 -0.000060 0.000000 -4.715461 6.200038 -0.650430 139.999985
[Rope3_Seg09]
11 90.185997 -0.000179 -0.000060 89.793228 -1.359877 -0.847183 90.185997
12 90.185997 -0.000179 -0.000060 89.793228 -1.359877 -0.847183 90.185997
[R_rear_hand01]
11 103.366196 -6.073594 -10.757982 -167.001480 21.149061 -46.791374 104.101845
12 103.366196 -6.073594 -10.757982 -166.071487 20.559361 -44.173790 104.101845
[R_rear_hand02]
11 100.509819 12.039542 -7.992327 -28.108641 27.848612 44.189137 101.543350
12 100.509819 12.039542 -7.992327 -29.245224 26.638008 41.706211 101.543350
[R_rear_hand03]
11 101.539970 5.215704 5.435467 81.609138 -47.214466 10.038949 101.819031
12 101.539970 5.215704 5.435467 81.983536 -44.720295 9.521895 101.819031
[Rope4_Seg01]
11 0.000002 0.000253 -0.000153 27.730738 27.543148 35.572720 0.000296
12 0.000002 0.000275 -0.000153 23.303864 28.961123 30.542793 0.000314
[Rope4_Seg02]
11 139.999985 0.000060 0.000119 -6.916938 11.021737 -10.624312 139.999985
12 139.999985 0.000060 0.000119 -7.022382 10.906569 -9.603132 139.999985
[Rope4_Seg03]
11 139.999924 0.000000 -0.000238 -6.611758 16.837685 -13.104193 139.999924
12 139.999924 0.000000 -0.000238 -7.098471 17.495203 -12.490864 139.999924
[Rope4_Seg04]
11 139.999985 0.000000 0.000119 -2.139900 16.852705 -9.390759 139.999985
12 139.999985 0.000000 0.000119 -2.650962 18.926861 -10.121137 139.999985
[Rope4_Seg05]
11 139.999802 -0.000060 -0.000119 0.626820 13.673103 -10.988605 139.999802
12 139.999802 -0.000060 -0.000119 0.925323 14.677940 -9.434748 139.999802
[Rope4_Seg06]
11 139.999924 0.000000 0.000060 2.708087 11.755940 -13.132959 139.999924
12 139.999924 0.000000 0.000060 3.199940 12.344769 -10.452101 139.999924
[Rope4_Seg07]
11 139.999802 0.000000 0.000000 2.846747 7.074699 -8.380494 139.999802
12 139.999802 0.000000 0.000000 3.512791 7.927546 -7.329119 139.999802
[Rope4_Seg08]
11 139.999924 0.000000 0.000119 0.364903 3.635256 -4.624485 139.999924
12 139.999924 0.000000 0.000119 0.923735 4.189794 -4.305995 139.999924
[Rope4_Seg09]
11 90.185791 0.000060 0.000060 -135.617828 2.228885 0.850567 90.185791
12 90.185791 0.000060 0.000060 -135.617828 2.228885 0.850567 90.185791
[L_rear_hand01]
11 101.696655 -8.392275 -7.654577 -30.608620 -25.023813 141.417831 102.329041
12 101.696655 -8.392275 -7.654577 -29.807377 -26.000988 139.554398 102.329041
[L_rear_hand02]
11 102.726799 -1.568258 5.773216 82.398407 41.509426 171.081650 102.900848
12 102.726799 -1.568258 5.773216 82.157768 43.437939 170.726135 102.900848
[L_rear_hand03]
11 104.552910 9.721220 -10.420293 -164.917755 -19.749290 -139.167572 105.519653
12 104.552910 9.721220 -10.420293 -165.604721 -20.244781 -137.169205 105.519653
